<?xml version="1.0" encoding="utf-8"?>
<!-- Generator: Adobe Illustrator 23.0.1, SVG Export Plug-In . SVG Version: 6.00 Build 0)  -->
<svg version="1.1" id="Capa_1" xmlns="http://www.w3.org/2000/svg" xmlns:xlink="http://www.w3.org/1999/xlink" x="0px" y="0px"
	 viewBox="0 0 180 30" style="enable-background:new 0 0 180 30;" xml:space="preserve">
<style type="text/css">
	.st0{fill:none;}
	.st1{fill:#FFFFFF;}
</style>
<g>
	<rect x="-25.8" y="4.5" class="st0" width="231.2" height="34.6"/>
	<path class="st1" d="M4.1,23.1V4.5h4.7c1,0,1.8,0.1,2.5,0.2c0.7,0.2,1.3,0.4,1.9,0.8c0.6,0.4,1,0.9,1.2,1.5
		c0.3,0.7,0.4,1.5,0.4,2.4c0,1.2-0.2,2.2-0.5,2.9s-0.9,1.3-1.8,1.7l2.6,9.1h-3.9l-2.1-8.4H7.9v8.4C7.9,23.1,4.1,23.1,4.1,23.1z
		 M7.9,12.4h0.9c0.9,0,1.6-0.2,1.9-0.6c0.4-0.4,0.6-1.1,0.6-2.1c0-0.9-0.2-1.6-0.5-2C10.5,7.3,9.9,7.1,9,7.1H7.9V12.4z"/>
	<path class="st1" d="M21.4,23.4c-1.5,0-2.6-0.4-3.3-1.2s-1.1-2-1.1-3.5v-4.3c0-1.5,0.4-2.7,1.1-3.5s1.9-1.2,3.3-1.2
		c1.5,0,2.6,0.4,3.3,1.2c0.7,0.8,1,2,1,3.6v2.2h-5.3v2.2c0,0.7,0.1,1.2,0.2,1.5s0.4,0.5,0.8,0.5c0.7,0,1-0.5,1-1.5v-1.2h3.2v1.1
		c0,1.3-0.4,2.4-1.1,3.1C23.9,23,22.8,23.4,21.4,23.4z M20.4,15h2v-1.3c0-0.6-0.1-1-0.3-1.2c-0.2-0.2-0.4-0.4-0.8-0.4
		s-0.6,0.1-0.8,0.4c-0.1,0.3-0.2,0.8-0.2,1.5L20.4,15L20.4,15z"/>
	<path class="st1" d="M30.4,23.4c-0.6,0-1.1-0.2-1.6-0.5s-0.8-0.7-1-1.2s-0.3-1-0.3-1.5c0-0.3,0-0.7,0.1-1s0.1-0.6,0.2-0.8
		c0.1-0.2,0.2-0.5,0.4-0.7s0.3-0.4,0.5-0.6s0.4-0.3,0.6-0.5c0.3-0.2,0.5-0.3,0.7-0.4s0.4-0.2,0.7-0.4s0.5-0.2,0.7-0.3
		s0.4-0.2,0.7-0.3s0.5-0.2,0.7-0.3v-1.2c0-0.5-0.1-0.8-0.2-1.1c-0.1-0.2-0.4-0.4-0.7-0.4c-0.6,0-0.9,0.4-0.9,1.2l0,1l-3.3-0.1
		c0-0.1,0-0.3,0-0.5c0.1-1.4,0.5-2.5,1.3-3.1c0.8-0.7,1.9-1,3.3-1c1.3,0,2.3,0.4,3,1.1c0.7,0.7,1,1.7,1,3v6.1c0,1,0.1,2.1,0.2,3.3
		h-3.1c-0.2-1-0.3-1.6-0.3-1.9c-0.2,0.6-0.5,1.1-0.9,1.5C31.7,23.2,31.1,23.4,30.4,23.4z M31.7,20.8c0.2,0,0.4-0.1,0.6-0.2
		c0.2-0.2,0.4-0.3,0.5-0.5v-3.6c-0.6,0.3-1.1,0.7-1.6,1.3c-0.4,0.5-0.6,1.1-0.6,1.6c0,0.4,0.1,0.8,0.3,1.1S31.4,20.8,31.7,20.8z"/>
	<path class="st1" d="M38.7,23.1V4.5h3.5v18.6H38.7z"/>
	<path class="st1" d="M50.6,23.1V4.5h8.1v2.6h-4.3V12h3.4v2.7h-3.4v5.8h4.4v2.6H50.6z"/>
	<path class="st1" d="M63.9,23.4c-2.2,0-3.7-1.1-4.4-3.4l2.5-1c0.4,1.4,1,2.1,1.8,2.1h0.1c0.3,0,0.5-0.1,0.7-0.3
		c0.2-0.2,0.2-0.4,0.2-0.7c0,0,0,0,0-0.1c0-0.4-0.5-1-1.6-1.9l-1.4-1.2c-1.4-1.2-2.1-2.4-2.1-3.6c0-1.1,0.4-2,1.1-2.6
		c0.7-0.7,1.7-1,2.8-1c1.1,0,1.9,0.3,2.6,0.9c0.7,0.6,1.2,1.5,1.4,2.5l-2.3,1c-0.1-0.5-0.3-1-0.6-1.4c-0.3-0.4-0.6-0.6-1-0.6
		c0,0,0,0-0.1,0c-0.3,0-0.5,0.1-0.7,0.2c-0.2,0.2-0.3,0.4-0.3,0.6c0,0.2,0.1,0.4,0.2,0.6c0.2,0.2,0.3,0.4,0.5,0.6
		c0.2,0.2,0.4,0.4,0.8,0.7l1.4,1.2c0.3,0.2,0.5,0.4,0.7,0.6c0.2,0.2,0.4,0.4,0.6,0.6c0.2,0.3,0.4,0.5,0.5,0.7s0.2,0.5,0.3,0.8
		c0.1,0.3,0.1,0.6,0.1,1c0,0.7-0.2,1.4-0.6,2s-0.9,1-1.5,1.2S64.6,23.4,63.9,23.4z"/>
	<path class="st1" d="M73.4,23.3c-0.5,0-1-0.1-1.4-0.3c-0.4-0.2-0.7-0.4-0.9-0.6c-0.2-0.3-0.4-0.6-0.6-1s-0.2-0.8-0.3-1.2
		s-0.1-0.9-0.1-1.4V12h-1.3V9.8h1.3v-4h3.5v4h2v2.3h-2v7.2c0,0.7,0.4,1.1,1.2,1.2c0,0,0,0,0.1,0c0.2,0,0.5,0,0.9-0.1v2.7
		c-0.9,0.1-1.6,0.2-2.2,0.2C73.5,23.3,73.4,23.3,73.4,23.3z"/>
	<path class="st1" d="M80.2,23.4c-0.6,0-1.1-0.2-1.6-0.5s-0.8-0.7-1-1.2s-0.3-1-0.3-1.5c0-0.3,0-0.7,0.1-1s0.1-0.6,0.2-0.8
		c0.1-0.2,0.2-0.5,0.4-0.7s0.3-0.4,0.5-0.6s0.4-0.3,0.6-0.5c0.3-0.2,0.5-0.3,0.7-0.4s0.4-0.2,0.7-0.4s0.5-0.2,0.7-0.3
		s0.4-0.2,0.7-0.3c0.3-0.1,0.5-0.2,0.7-0.3v-1.2c0-0.5-0.1-0.8-0.2-1.1c-0.1-0.2-0.4-0.4-0.7-0.4c-0.6,0-0.9,0.4-0.9,1.2l-0.1,0.9
		l-3.3-0.1c0-0.1,0-0.3,0-0.5c0.1-1.4,0.5-2.5,1.3-3.1c0.8-0.7,1.9-1,3.3-1c1.3,0,2.3,0.4,3,1.1c0.7,0.7,1,1.7,1,3v6.1
		c0,1,0.1,2.1,0.2,3.3h-3.1c-0.2-1-0.3-1.6-0.3-1.9c-0.2,0.6-0.5,1.1-0.9,1.5C81.4,23.2,80.9,23.4,80.2,23.4z M81.5,20.8
		c0.2,0,0.4-0.1,0.6-0.2c0.2-0.2,0.4-0.3,0.5-0.5v-3.6c-0.6,0.3-1.1,0.7-1.6,1.3c-0.4,0.5-0.6,1.1-0.6,1.6c0,0.4,0.1,0.8,0.3,1.1
		S81.2,20.8,81.5,20.8z"/>
	<path class="st1" d="M91.9,23.3c-0.5,0-1-0.1-1.4-0.3c-0.4-0.2-0.7-0.4-0.9-0.6c-0.2-0.3-0.4-0.6-0.6-1s-0.2-0.8-0.3-1.2
		s-0.1-0.9-0.1-1.4V12h-1.3V9.8h1.3v-4h3.5v4h2v2.3h-2v7.2c0,0.7,0.4,1.1,1.2,1.2c0,0,0,0,0.1,0c0.2,0,0.5,0,0.9-0.1v2.7
		c-0.9,0.1-1.6,0.2-2.2,0.2C92,23.3,92,23.3,91.9,23.3z"/>
	<path class="st1" d="M100.3,23.4c-1.5,0-2.6-0.4-3.3-1.2s-1.1-2-1.1-3.5v-4.3c0-1.5,0.4-2.7,1.1-3.5s1.9-1.2,3.3-1.2
		c1.5,0,2.6,0.4,3.3,1.2c0.7,0.8,1,2,1,3.6v2.2h-5.3v2.2c0,0.7,0.1,1.2,0.2,1.5s0.4,0.5,0.8,0.5c0.7,0,1-0.5,1-1.5v-1.2h3.2v1.1
		c0,1.3-0.4,2.4-1.1,3.1C102.7,23,101.6,23.4,100.3,23.4z M99.2,15h2v-1.3c0-0.6-0.1-1-0.3-1.2c-0.2-0.2-0.4-0.4-0.8-0.4
		s-0.6,0.1-0.8,0.4c-0.1,0.3-0.2,0.8-0.2,1.5v1H99.2z"/>
	<path class="st1" d="M111.7,23.1l3.6-18.6h4.2l3.6,18.6h-3.5l-0.7-4.1h-3l-0.7,4.1H111.7z M116.3,16.7h2.2l-1.1-7.4L116.3,16.7z"/>
	<path class="st1" d="M129.6,27.1c-0.4,0-0.8,0-1.2,0c-0.3,0-0.8,0-1.2-0.1s-0.8-0.1-1.2-0.2c-0.3-0.1-0.6-0.3-0.9-0.4
		c-0.3-0.2-0.5-0.4-0.7-0.7s-0.2-0.6-0.2-1c0-1,0.6-1.9,1.9-2.7c-0.5-0.2-0.9-0.4-1.1-0.7c-0.2-0.2-0.4-0.5-0.4-0.9
		c0-0.1,0-0.2,0-0.3c0-0.4,0.1-0.7,0.3-1c0.3-0.4,0.7-0.8,1.3-1.3c-0.5-0.4-0.8-0.8-1.1-1.3c-0.2-0.5-0.4-1.2-0.4-2.1
		c0-1.6,0.4-2.9,1.1-3.7s1.8-1.2,3.3-1.2c1.5,0,2.4,0.4,3,1.2c0.5-0.6,1.1-1.1,1.8-1.4l0.5-0.2L135,11c-0.2,0.1-0.6,0.2-1.1,0.4
		s-0.9,0.4-1.1,0.5c0.2,0.3,0.3,0.6,0.4,1.1c0.1,0.5,0.2,1,0.2,1.5c0,1.4-0.3,2.6-1,3.4s-1.7,1.2-3.2,1.2c-0.3,0-0.6,0-1-0.1
		c-0.4-0.1-0.7-0.1-0.9-0.2c-0.3,0.3-0.4,0.6-0.4,0.8c0,0,0,0,0,0.1c0,0.3,0.4,0.4,1.2,0.5c0.1,0,0.6,0.1,1.3,0.2s1.2,0.1,1.4,0.2
		c1.2,0.1,2.1,0.5,2.6,1s0.8,1.3,0.8,2.2c0,1.1-0.3,2-1,2.6S131.2,27.1,129.6,27.1z M129.5,24.8c0.6,0,1.1-0.1,1.4-0.2
		s0.4-0.4,0.5-0.7c0-0.1,0-0.1,0-0.2c0-0.3-0.1-0.5-0.3-0.7s-0.6-0.3-1.2-0.4l-2.1-0.2c-0.4,0.5-0.6,1-0.6,1.4
		c0,0.3,0.2,0.6,0.5,0.7S128.7,24.8,129.5,24.8z M129,16.9c0.5,0,0.8-0.2,0.9-0.6c0.1-0.4,0.2-1,0.2-2c0-0.4,0-0.7,0-1
		c0-0.2,0-0.5-0.1-0.7s-0.1-0.4-0.2-0.5c-0.1-0.1-0.2-0.2-0.3-0.3s-0.3-0.1-0.5-0.1s-0.4,0-0.5,0.1s-0.2,0.2-0.3,0.3
		s-0.1,0.3-0.2,0.5c0,0.2-0.1,0.5-0.1,0.7s0,0.5,0,0.9s0,0.8,0,1.1s0.1,0.5,0.2,0.8c0.1,0.2,0.2,0.4,0.3,0.5
		C128.6,16.8,128.8,16.9,129,16.9z"/>
	<path class="st1" d="M140.1,23.4c-1.5,0-2.6-0.4-3.3-1.2s-1.1-2-1.1-3.5v-4.3c0-1.5,0.4-2.7,1.1-3.5c0.7-0.8,1.9-1.2,3.3-1.2
		c1.5,0,2.6,0.4,3.3,1.2s1,2,1,3.6v2.2H139v2.2c0,0.7,0.1,1.2,0.2,1.5c0.1,0.3,0.4,0.5,0.8,0.5c0.7,0,1-0.5,1-1.5v-1.2h3.2v1.1
		c0,1.3-0.4,2.4-1.1,3.1C142.5,23,141.4,23.4,140.1,23.4z M139,15h2v-1.3c0-0.6-0.1-1-0.3-1.2s-0.4-0.4-0.8-0.4s-0.6,0.1-0.8,0.4
		c-0.1,0.3-0.2,0.8-0.2,1.5v1H139z"/>
	<path class="st1" d="M146.4,23.1V9.8h3.5v1.3c1.1-1,2.1-1.5,3.2-1.5c0.8,0,1.4,0.3,1.7,0.8c0.4,0.6,0.6,1.3,0.6,2.1V23H152v-9.9
		c0-0.4-0.1-0.6-0.2-0.8c-0.1-0.2-0.3-0.3-0.6-0.3c-0.4,0-0.8,0.2-1.3,0.5V23h-3.5V23.1z"/>
	<path class="st1" d="M161.9,23.4c-1.5,0-2.6-0.4-3.3-1.2c-0.7-0.8-1.1-2-1.1-3.5v-4.4c0-1.5,0.4-2.7,1.1-3.5
		c0.7-0.8,1.8-1.2,3.3-1.2c2.9,0,4.3,1.3,4.3,4v1.3h-3.3v-1.3c0-0.6-0.1-1-0.2-1.2c-0.1-0.2-0.4-0.3-0.7-0.3c-0.4,0-0.6,0.1-0.8,0.4
		S161,13.3,161,14v5.2c0,0.7,0.1,1.2,0.2,1.4c0.2,0.3,0.4,0.4,0.7,0.4s0.6-0.1,0.7-0.4c0.1-0.2,0.2-0.6,0.2-1.1v-1.6h3.3v1.4
		c0,1.3-0.4,2.4-1.1,3C164.4,23,163.3,23.4,161.9,23.4z"/>
	<path class="st1" d="M168.4,26.8v-2.4c0.9,0,1.5-0.1,1.8-0.3c0.3-0.1,0.4-0.4,0.4-0.8c0-0.1,0-0.2,0-0.3c-0.1-0.4-0.2-1.1-0.5-2
		c-0.1-0.6-0.6-2.4-1.5-5.6s-1.4-5-1.5-5.6h3.3l1.7,8.1l1.3-8.1h3.3l-3.1,14c-0.4,2-2,3-4.6,3h-0.1
		C168.9,26.8,168.4,26.8,168.4,26.8z"/>
</g>
</svg>
